<svg width="158" height="158" xmlns="http://www.w3.org/2000/svg" xmlns:xlink="http://www.w3.org/1999/xlink" xml:space="preserve" overflow="hidden">
  <defs>
    <!-- Definir el gradiente -->
      <linearGradient id="svgGradient2" x1="0%" y1="0%" x2="100%" y2="0%">
      <stop offset="0%" style="stop-color:#2170b4; stop-opacity:1" />
          <stop offset="10%" style="stop-color:#1b7cbf; stop-opacity:1" />
          <stop offset="20%" style="stop-color:#1587ca; stop-opacity:1" />
          <stop offset="30%" style="stop-color:#0d93d4; stop-opacity:1" />
          <stop offset="40%" style="stop-color:#049fde; stop-opacity:1" />
          <stop offset="50%" style="stop-color:#249ee2; stop-opacity:1" />
          <stop offset="60%" style="stop-color:#399ce6; stop-opacity:1" />
          <stop offset="70%" style="stop-color:#4a9ae9; stop-opacity:1" />
          <stop offset="80%" style="stop-color:#7088e0; stop-opacity:1" />
          <stop offset="90%" style="stop-color:#9073ce; stop-opacity:1" />
          <stop offset="100%" style="stop-color:#a85db4; stop-opacity:1" />
          <stop offset="110%" style="stop-color:#b84493; stop-opacity:1" />
    </linearGradient>
  </defs>

    <g transform="translate(200 -522)">
    <!-- Aplicar gradiente a los elementos del SVG -->
        <path d="M-134.99 595.404C-134.99 603.585-141.621 610.217-149.802 610.217-157.983 610.217-164.615 603.585-164.615 595.404-164.615 587.223-157.983 580.592-149.802 580.592-141.621 580.592-134.99 587.223-134.99 595.404Z" fill="url(#svgGradient2)" />

        <path d="M-80.6771 666.833-80.6771 652.021C-80.6193 649.676-81.7294 647.456-83.6396 646.096-87.9015 642.757-92.8464 640.396-98.1229 639.183-102.078 637.992-106.173 637.328-110.302 637.208-114.441 637.222-118.551 637.888-122.481 639.183-127.68 640.612-132.584 642.953-136.965 646.096-138.819 647.503-139.914 649.693-139.927 652.021L-139.927 666.833Z" fill="url(#svgGradient2)" />

        <path d="M-95.4896 618.446C-95.4896 626.627-102.121 633.258-110.302 633.258-118.483 633.258-125.115 626.627-125.115 618.446-125.115 610.265-118.483 603.633-110.302 603.633-102.121 603.633-95.4896 610.265-95.4896 618.446Z" fill="url(#svgGradient2)" />

        <path d="M-140.915 640.829-140.915 640.829C-136.293 637.531-131.184 634.977-125.773 633.258-129.506 629.352-131.623 624.178-131.698 618.775L-131.698 618.117C-133.621 617.311-135.601 616.651-137.623 616.142-141.578 614.951-145.673 614.287-149.802 614.167-153.94 614.18-158.051 614.847-161.981 616.142-167.127 617.709-172.009 620.039-176.465 623.054-178.375 624.415-179.485 626.635-179.427 628.979L-179.427 643.792-143.877 643.792C-143.061 642.646-142.06 641.645-140.915 640.829Z" fill="url(#svgGradient2)" />

        <path d="M-66.1115 535.167-128.275 535.167C-130.174 535.176-131.707 536.723-131.698 538.623-131.698 538.628-131.698 538.634-131.698 538.639L-131.698 581.02C-131.735 582.928-130.217 584.505-128.309 584.542-128.308 584.542-128.308 584.542-128.307 584.542L-118.432 584.542-118.432 598.432-104.756 584.542-66.1115 584.542C-64.2064 584.524-62.6717 582.974-62.6717 581.069L-62.6717 538.639C-62.6715 536.734-64.2064 535.185-66.1115 535.167ZM-97.481 578.37-97.481 578.37C-99.499 578.37-101.135 576.734-101.134 574.716-101.134 572.698-99.4983 571.062-97.4804 571.062-95.4818 571.062-93.8543 572.668-93.8273 574.667-93.7903 576.675-95.3884 578.333-97.3968 578.37-97.4522 578.372-97.5079 578.371-97.5633 578.37ZM-86.0919 552.744-86.0919 553.156-90.7825 553.156-90.7825 552.744C-90.7497 552.366-90.7497 551.986-90.7825 551.609-91.0952 548.223-94.0928 545.733-97.4779 546.045-97.4789 546.045-97.48 546.045-97.481 546.046L-97.7279 546.046C-101.363 546.109-104.259 549.107-104.196 552.742-104.196 552.743-104.196 552.744-104.196 552.744-104.196 556.414-101.563 558.801-97.481 558.801L-95.144 558.801-95.144 568.495-99.8346 568.495-99.8346 563.31C-105.126 562.651-109.046 558.074-108.887 552.744L-108.887 552.481C-108.805 546.258-103.704 541.275-97.481 541.339-91.5374 540.992-86.4378 545.529-86.0909 551.472-86.0662 551.896-86.0665 552.321-86.0919 552.744Z" fill="url(#svgGradient2)" />
  </g>
</svg>
