<svg width="147" height="146" xmlns="http://www.w3.org/2000/svg" xmlns:xlink="http://www.w3.org/1999/xlink" xml:space="preserve" overflow="hidden"><g transform="translate(171 -322)"><path d="M83.2869 84.1021C84.9995 85.7662 85.0389 88.5035 83.3748 90.2161 83.3459 90.2458 83.3166 90.2751 83.2869 90.304L75.8622 92.7495 74.5528 91.4401 76.9983 84.0154C78.7714 82.3349 81.5608 82.3734 83.2869 84.1021ZM116.837 39.2846 73.949 82.268 68.4375 98.8648 85.121 93.3609 128.018 50.4734Z" fill="#0079A4" transform="matrix(1.00685 0 0 1 -171 322)"/><path d="M137.359 36.1456 131.157 29.9437C129.813 28.5687 127.609 28.5435 126.234 29.8873 126.215 29.9058 126.196 29.9247 126.177 29.9437L120.062 36.059 131.157 47.1458 137.27 41.0321C138.642 39.8253 138.776 37.7352 137.569 36.3637 137.502 36.2878 137.432 36.215 137.359 36.1456Z" fill="#0079A4" transform="matrix(1.00685 0 0 1 -171 322)"/><path d="M39.5417 98.8542 63.6347 98.8542 65.6513 92.7708 39.5417 92.7708 39.5417 98.8542Z" fill="#0079A4" transform="matrix(1.00685 0 0 1 -171 322)"/><path d="M39.5417 62.3542 87.3688 62.3542 93.44 56.2708 39.5417 56.2708 39.5417 62.3542Z" fill="#0079A4" transform="matrix(1.00685 0 0 1 -171 322)"/><path d="M106.458 78.475 106.458 124.708 30.4167 124.708 30.4167 30.4167 47.1458 30.4167 47.1458 39.5417 89.7292 39.5417 89.7292 30.4167 106.458 30.4167 106.458 43.2251 113.606 36.059 113.606 36.059 113.866 35.7989 115.583 34.0819 115.583 27.375C115.583 24.0153 112.86 21.2917 109.5 21.2917L83.6458 21.2917 83.6458 18.25C83.6458 14.8903 80.9222 12.1667 77.5625 12.1667L59.3125 12.1667C55.9528 12.1667 53.2292 14.8903 53.2292 18.25L53.2292 21.2917 27.375 21.2917C24.0153 21.2917 21.2917 24.0153 21.2917 27.375L21.2917 127.75C21.2917 131.11 24.0153 133.833 27.375 133.833L109.5 133.833C112.86 133.833 115.583 131.11 115.583 127.75L115.583 69.35ZM65.189 19.564C66.0484 18.7031 67.2211 18.2287 68.4375 18.25 70.9574 18.25 73 20.2926 73 22.8125 73 25.3324 70.9574 27.375 68.4375 27.375 65.9176 27.375 63.875 25.3324 63.875 22.8125 63.8537 21.5961 64.3281 20.4234 65.189 19.564Z" fill="#0079A4" transform="matrix(1.00685 0 0 1 -171 322)"/><path d="M39.5417 80.6042 69.1188 80.6042 75.19 74.5208 39.5417 74.5208 39.5417 80.6042Z" fill="#0079A4" transform="matrix(1.00685 0 0 1 -171 322)"/></g></svg>