<svg width="143" height="143" xmlns="http://www.w3.org/2000/svg" xmlns:xlink="http://www.w3.org/1999/xlink" xml:space="preserve" overflow="hidden">
  <defs>
    <!-- Definir gradiente para aplicar a los elementos del SVG -->
      <linearGradient id="svgGradient" x1="0%" y1="0%" x2="100%" y2="0%">
      <stop offset="0%" style="stop-color:#2170b4; stop-opacity:1" />
          <stop offset="10%" style="stop-color:#1b7cbf; stop-opacity:1" />
          <stop offset="20%" style="stop-color:#1587ca; stop-opacity:1" />
          <stop offset="30%" style="stop-color:#0d93d4; stop-opacity:1" />
          <stop offset="40%" style="stop-color:#049fde; stop-opacity:1" />
          <stop offset="50%" style="stop-color:#249ee2; stop-opacity:1" />
          <stop offset="60%" style="stop-color:#399ce6; stop-opacity:1" />
          <stop offset="70%" style="stop-color:#4a9ae9; stop-opacity:1" />
          <stop offset="80%" style="stop-color:#7088e0; stop-opacity:1" />
          <stop offset="90%" style="stop-color:#9073ce; stop-opacity:1" />
          <stop offset="100%" style="stop-color:#a85db4; stop-opacity:1" />
          <stop offset="110%" style="stop-color:#b84493; stop-opacity:1" />
    </linearGradient>
  </defs>

    <g transform="translate(-196 -596)">
    <!-- Aplicar el gradiente al primer path -->
        <path d="M233.24 701.909C236.219 704.889 236.219 709.506 233.24 712.485L220.578 716.656 218.344 714.422 222.515 701.76C225.643 698.93 230.26 698.93 233.24 701.909ZM291.78 624.153 217.301 698.781 207.917 727.083 236.368 717.699 310.847 643.22" fill="url(#svgGradient)"/>

        <!-- Aplicar el gradiente al segundo path -->
        <path d="M325.445 620.131 314.869 609.555C312.485 607.172 308.761 607.172 306.378 609.555L295.951 619.982 314.869 638.9 325.296 628.473C327.828 626.239 327.828 622.515 325.445 620.131Z" fill="url(#svgGradient)"/>
  </g>
</svg>
