<svg width="188" height="187" xmlns="http://www.w3.org/2000/svg" xmlns:xlink="http://www.w3.org/1999/xlink" xml:space="preserve" overflow="hidden"><g transform="translate(187 -161)"><path d="M64.2812 59.9958C64.2812 69.6781 56.4322 77.5271 46.75 77.5271 37.0678 77.5271 29.2188 69.6781 29.2188 59.9958 29.2188 50.3136 37.0678 42.4646 46.75 42.4646 56.4322 42.4646 64.2812 50.3136 64.2812 59.9958Z" fill="#0079A4" transform="matrix(1.00535 0 0 1 -187 161)"/><path d="M157.781 59.9958C157.781 69.6781 149.932 77.5271 140.25 77.5271 130.568 77.5271 122.719 69.6781 122.719 59.9958 122.719 50.3136 130.568 42.4646 140.25 42.4646 149.932 42.4646 157.781 50.3136 157.781 59.9958Z" fill="#0079A4" transform="matrix(1.00535 0 0 1 -187 161)"/><path d="M128.562 144.535 128.562 127.004C128.562 124.277 127.394 121.55 125.056 119.992 120.381 116.096 114.148 113.369 107.915 111.81 103.629 110.642 98.5646 109.473 93.5 109.473 88.825 109.473 83.7604 110.252 79.0854 111.81 72.8521 113.369 67.0083 116.485 61.9437 119.992 59.6063 121.94 58.4375 124.277 58.4375 127.004L58.4375 144.535 128.562 144.535Z" fill="#0079A4" transform="matrix(1.00535 0 0 1 -187 161)"/><path d="M111.031 87.2667C111.031 96.9489 103.182 104.798 93.5 104.798 83.8178 104.798 75.9688 96.9489 75.9688 87.2667 75.9688 77.5844 83.8178 69.7354 93.5 69.7354 103.182 69.7354 111.031 77.5844 111.031 87.2667Z" fill="#0079A4" transform="matrix(1.00535 0 0 1 -187 161)"/><path d="M171.806 92.7208C167.131 88.825 160.898 86.0979 154.665 84.5396 150.379 83.3708 145.315 82.2021 140.25 82.2021 135.575 82.2021 130.51 82.9812 125.835 84.5396 123.498 85.3187 121.16 86.0979 118.823 87.2667L118.823 87.6562C118.823 94.2792 116.096 100.512 111.81 104.798 119.213 107.135 125.056 110.252 129.731 113.758 130.9 114.927 132.069 115.706 132.848 117.265L175.312 117.265 175.312 99.7333C175.312 97.0062 174.144 94.2792 171.806 92.7208Z" fill="#0079A4" transform="matrix(1.00535 0 0 1 -187 161)"/><path d="M57.2687 113.758 57.2687 113.758C62.7229 109.863 68.9563 106.746 75.1896 104.798 70.9042 100.123 68.1771 94.2792 68.1771 87.6562 68.1771 87.2667 68.1771 87.2667 68.1771 86.8771 65.8396 86.0979 63.5021 84.9292 61.1646 84.5396 56.8792 83.3708 51.8146 82.2021 46.75 82.2021 42.075 82.2021 37.0104 82.9812 32.3354 84.5396 26.1021 86.4875 20.2583 89.2146 15.1938 92.7208 12.8562 94.2792 11.6875 97.0062 11.6875 99.7333L11.6875 117.265 53.7625 117.265C54.9313 115.706 55.7104 114.927 57.2687 113.758Z" fill="#0079A4" transform="matrix(1.00535 0 0 1 -187 161)"/></g></svg>